# xmcd
#
# Track frame offsets: 
#        150
#        14340
#        25997
#        38030
#        50610
#        61967
#        74117
#        84987
#        95615
#        113085
#        126412
#        140837
#        155282
#        172102
#        183340
#        196360
#
# Disc length: 2805 seconds
#
# Revision: 0
# Processed by: cddbd v1.4PL0 Copyright (c) Steve Scherf et al.
# Submitted via: ExactAudioCopy v0.90a11
#
DISCID=e70af310
DTITLE=O Melhor do Fama - 2002 - cd 02 - O Melhor do Fama - 2002 - cd 
DTITLE=02
DYEAR=1900
DGENRE=
TTITLE0=Imortal  - João Batista  - Vanessa Jackson
TTITLE1=Toque de Mágica  - Tonny Francis
TTITLE2=Universo no Teu Corpo  - Kíldere
TTITLE3=Folhas Secas  - Andrea Marquee
TTITLE4=Santo, Santo  - Nalanda
TTITLE5=Respect  - Vanessa Jackson
TTITLE6=Enrosca  - Ana Luíza
TTITLE7=Como Vai Você  - Rodriggo  - Lívia Leite
TTITLE8=Romaria  - Tonny Francis
TTITLE9=Esperando na Janela  - João Batista  - Nalanda
TTITLE10=Final Feliz  - Adelmo Casé
TTITLE11=Tempos Modernos  - Juliano Cortuah
TTITLE12=Malandragem  - Lívia Leite
TTITLE13=Codinome Beija-flor  - Fael Mondego
TTITLE14=É o Amor  - Adelmo Casé  - Vanessa Jackson
TTITLE15=O Dom Verdadeiro  - Vários
EXTD=
EXTT0=
EXTT1=
EXTT2=
EXTT3=
EXTT4=
EXTT5=
EXTT6=
EXTT7=
EXTT8=
EXTT9=
EXTT10=
EXTT11=
EXTT12=
EXTT13=
EXTT14=
EXTT15=
PLAYORDER=
